# Blender v2.78 (sub 0) OBJ File: 'wall.blend'
# www.blender.org
mtllib wall.mtl
o Cube_Cube.002
v -1.000000 -0.064225 1.000000
v -1.000000 1.935775 1.000000
v -1.000000 -0.064225 -1.000000
v -1.000000 1.935775 -1.000000
v 1.000000 -0.064225 1.000000
v 1.000000 1.935775 1.000000
v 1.000000 -0.064225 -1.000000
v 1.000000 1.935775 -1.000000
v -1.000000 -0.064225 0.000000
v 0.000000 -0.064225 -1.000000
v 1.000000 -0.064225 0.000000
v 0.000000 -0.064225 1.000000
v -1.000000 -0.064225 0.500000
v -1.000000 1.935775 -0.500000
v -0.500000 -0.064225 -1.000000
v 0.500000 1.935775 -1.000000
v 1.000000 -0.064225 -0.500000
v 1.000000 1.935775 0.500000
v 0.500000 -0.064225 1.000000
v -0.500000 1.935775 1.000000
v -1.000000 -0.064225 -0.500000
v -1.000000 1.935775 0.500000
v 0.500000 -0.064225 -1.000000
v -0.500000 1.935775 -1.000000
v 1.000000 -0.064225 0.500000
v 1.000000 1.935775 -0.500000
v -0.500000 -0.064225 1.000000
v 0.500000 1.935775 1.000000
v -0.500000 1.935775 -0.500000
v 0.500000 1.935775 -0.500000
v 0.500000 1.935775 0.500000
v -0.500000 1.935775 0.500000
v -1.000000 2.273274 -0.500000
v -1.000000 2.273274 -1.000000
v 0.500000 2.273274 -1.000000
v 1.000000 2.273274 -1.000000
v 1.000000 2.273274 0.500000
v 1.000000 2.273274 1.000000
v -0.500000 2.273274 1.000000
v -1.000000 2.273274 1.000000
v -1.000000 2.273274 0.500000
v -0.500000 2.273274 -1.000000
v 1.000000 2.273274 -0.500000
v 0.500000 2.273274 1.000000
v -0.500000 2.273274 -0.500000
v 0.500000 2.273274 -0.500000
v 0.500000 2.273274 0.500000
v -0.500000 2.273274 0.500000
vt 0.5020 0.8999
vt 0.4024 0.9672
vt 0.4024 0.8999
vt 0.8991 0.3999
vt 0.7994 0.2006
vt 0.8991 0.2006
vt 0.1998 0.3999
vt 0.2994 0.3999
vt 0.2994 0.7986
vt 0.5993 0.3999
vt 0.6989 0.3999
vt 0.6989 0.7986
vt 0.1998 0.0004
vt 0.2994 0.0004
vt 0.2994 0.3991
vt 0.5993 0.0004
vt 0.6989 0.0004
vt 0.6989 0.3991
vt 0.4007 0.7994
vt 0.6001 0.8991
vt 0.4007 0.8991
vt 0.3011 0.8999
vt 0.2014 0.9672
vt 0.2014 0.8999
vt 0.0004 0.8991
vt 0.1998 0.7994
vt 0.1998 0.8991
vt 0.2006 0.8999
vt 0.1009 0.9672
vt 0.1009 0.8999
vt 0.0004 0.9672
vt 0.1001 0.8999
vt 0.1001 0.9672
vt 0.7994 0.0004
vt 0.9988 0.1998
vt 0.7994 0.1998
vt 0.2006 0.8991
vt 0.3999 0.7994
vt 0.3999 0.8991
vt 0.6009 0.8991
vt 0.7006 0.7994
vt 0.7006 0.8991
vt 0.7994 0.7014
vt 0.8991 0.6017
vt 0.8991 0.7014
vt 0.7994 0.5004
vt 0.8991 0.4007
vt 0.8991 0.5004
vt 0.7994 0.6009
vt 0.8991 0.5012
vt 0.8991 0.6009
vt 0.8019 0.8667
vt 0.9015 0.7994
vt 0.9015 0.8667
vt 0.8991 0.7022
vt 0.7994 0.7695
vt 0.7994 0.7022
vt 0.7014 0.8667
vt 0.8011 0.7994
vt 0.8011 0.8667
vt 0.8999 0.4040
vt 0.9996 0.3368
vt 0.9996 0.4040
vt 0.9996 0.2687
vt 0.8999 0.3359
vt 0.8999 0.2687
vt 0.8011 0.8675
vt 0.7014 0.9348
vt 0.7014 0.8675
vt 0.8999 0.2678
vt 0.9996 0.2006
vt 0.9996 0.2678
vt 0.3019 0.9672
vt 0.4015 0.8999
vt 0.4015 0.9672
vt 0.9996 0.4729
vt 0.8999 0.5402
vt 0.8999 0.4729
vt 0.6025 0.8999
vt 0.5028 0.9672
vt 0.5028 0.8999
vt 0.8019 0.9348
vt 0.9015 0.8675
vt 0.9015 0.9348
vt 0.8999 0.4721
vt 0.9996 0.4049
vt 0.9996 0.4721
vt 0.5020 0.9672
vt 0.7994 0.3999
vt 0.1001 0.7986
vt 0.0004 0.7986
vt 0.0004 0.3999
vt 0.1001 0.3999
vt 0.3991 0.3999
vt 0.3991 0.7986
vt 0.4996 0.7986
vt 0.3999 0.7986
vt 0.3999 0.3999
vt 0.4996 0.3999
vt 0.7986 0.3999
vt 0.7986 0.7986
vt 0.1001 0.3991
vt 0.0004 0.3991
vt 0.0004 0.0004
vt 0.1001 0.0004
vt 0.3991 0.0004
vt 0.3991 0.3991
vt 0.4996 0.3991
vt 0.3999 0.3991
vt 0.3999 0.0004
vt 0.4996 0.0004
vt 0.7986 0.0004
vt 0.7986 0.3991
vt 0.6001 0.7994
vt 0.3011 0.9672
vt 0.0004 0.7994
vt 0.2006 0.9672
vt 0.0004 0.8999
vt 0.9988 0.0004
vt 0.2006 0.7994
vt 0.6009 0.7994
vt 0.7994 0.6017
vt 0.7994 0.4007
vt 0.7994 0.5012
vt 0.8019 0.7994
vt 0.8991 0.7695
vt 0.7014 0.7994
vt 0.8999 0.3368
vt 0.9996 0.3359
vt 0.8011 0.9348
vt 0.8999 0.2006
vt 0.3019 0.8999
vt 0.9996 0.5402
vt 0.6025 0.9672
vt 0.8019 0.8675
vt 0.8999 0.4049
vn 0.0000 0.0000 1.0000
vn 0.0000 1.0000 0.0000
vn 1.0000 0.0000 0.0000
vn 0.0000 0.0000 -1.0000
vn -1.0000 0.0000 0.0000
usemtl None
s off
f 6/1/1 44/2/1 28/3/1
f 31/4/2 26/5/2 30/6/2
f 12/7/1 19/8/1 28/9/1
f 11/10/3 17/11/3 26/12/3
f 10/13/4 15/14/4 24/15/4
f 9/16/5 13/17/5 22/18/5
f 32/19/2 14/20/2 22/21/2
f 20/22/1 40/23/1 2/24/1
f 24/25/2 30/26/2 16/27/2
f 29/28/1 33/29/1 14/30/1
f 31/31/4 37/32/4 18/33/4
f 32/34/2 30/35/2 29/36/2
f 32/37/2 28/38/2 31/39/2
f 41/40/2 39/41/2 48/42/2
f 34/43/2 45/44/2 42/45/2
f 35/46/2 43/47/2 36/48/2
f 47/49/2 38/50/2 37/51/2
f 16/52/4 36/53/4 8/54/4
f 32/55/3 39/56/3 20/57/3
f 30/58/5 35/59/5 16/60/5
f 4/61/4 42/62/4 24/63/4
f 26/64/1 46/65/1 30/66/1
f 18/67/3 38/68/3 6/69/3
f 22/70/4 48/71/4 32/72/4
f 28/73/5 47/74/5 31/75/5
f 8/76/3 43/77/3 26/78/3
f 24/79/3 45/80/3 29/81/3
f 14/82/5 34/83/5 4/84/5
f 2/85/5 41/86/5 22/87/5
f 6/1/1 38/88/1 44/2/1
f 31/4/2 18/89/2 26/5/2
f 20/90/1 2/91/1 1/92/1
f 27/93/1 12/7/1 20/90/1
f 20/90/1 1/92/1 27/93/1
f 5/94/1 6/95/1 28/9/1
f 28/9/1 20/90/1 12/7/1
f 19/8/1 5/94/1 28/9/1
f 18/96/3 6/97/3 5/98/3
f 25/99/3 11/10/3 18/96/3
f 18/96/3 5/98/3 25/99/3
f 7/100/3 8/101/3 26/12/3
f 26/12/3 18/96/3 11/10/3
f 17/11/3 7/100/3 26/12/3
f 16/102/4 8/103/4 7/104/4
f 23/105/4 10/13/4 16/102/4
f 16/102/4 7/104/4 23/105/4
f 3/106/4 4/107/4 24/15/4
f 24/15/4 16/102/4 10/13/4
f 15/14/4 3/106/4 24/15/4
f 14/108/5 4/109/5 3/110/5
f 21/111/5 9/16/5 14/108/5
f 14/108/5 3/110/5 21/111/5
f 1/112/5 2/113/5 22/18/5
f 22/18/5 14/108/5 9/16/5
f 13/17/5 1/112/5 22/18/5
f 32/19/2 29/114/2 14/20/2
f 20/22/1 39/115/1 40/23/1
f 24/25/2 29/116/2 30/26/2
f 29/28/1 45/117/1 33/29/1
f 31/31/4 47/118/4 37/32/4
f 32/34/2 31/119/2 30/35/2
f 32/37/2 20/120/2 28/38/2
f 41/40/2 40/121/2 39/41/2
f 34/43/2 33/122/2 45/44/2
f 35/46/2 46/123/2 43/47/2
f 47/49/2 44/124/2 38/50/2
f 16/52/4 35/125/4 36/53/4
f 32/55/3 48/126/3 39/56/3
f 30/58/5 46/127/5 35/59/5
f 4/61/4 34/128/4 42/62/4
f 26/64/1 43/129/1 46/65/1
f 18/67/3 37/130/3 38/68/3
f 22/70/4 41/131/4 48/71/4
f 28/73/5 44/132/5 47/74/5
f 8/76/3 36/133/3 43/77/3
f 24/79/3 42/134/3 45/80/3
f 14/82/5 33/135/5 34/83/5
f 2/85/5 40/136/5 41/86/5
